<?xml version="1.0" standalone="no"?>
<!DOCTYPE svg PUBLIC "-//W3C//DTD SVG 20010904//EN"
 "http://www.w3.org/TR/2001/REC-SVG-20010904/DTD/svg10.dtd">
<svg version="1.0" xmlns="http://www.w3.org/2000/svg"
 width="250.000000pt" height="250.000000pt" viewBox="0 0 250.000000 250.000000"
 preserveAspectRatio="xMidYMid meet">
<metadata>
Created by potrace 1.14, written by Peter Selinger 2001-2017
</metadata>
<g transform="translate(0.000000,250.000000) scale(0.100000,-0.100000)"
fill="#000000" stroke="none">
<path d="M1203 2260 c-2 -3 -39 -6 -81 -6 -42 -1 -97 -5 -122 -8 -25 -4 -87
-12 -137 -18 -51 -7 -93 -15 -93 -20 0 -4 -5 -8 -11 -8 -5 0 -7 5 -4 10 4 7
-4 9 -22 5 -15 -2 -57 -7 -93 -11 -36 -3 -72 -10 -80 -16 -12 -8 -12 -9 3 -4
9 3 17 1 17 -4 0 -5 -12 -11 -27 -13 -16 -3 10 -3 57 0 47 2 94 6 105 9 16 4
17 3 5 -5 -8 -6 -27 -11 -42 -11 -17 0 -31 -8 -38 -20 -7 -13 -18 -18 -33 -16
-12 3 -28 5 -35 5 -7 1 -10 6 -6 13 4 7 3 8 -5 4 -6 -4 -9 -11 -6 -16 3 -5 -2
-16 -11 -25 -12 -12 -19 -13 -30 -4 -8 6 -14 7 -14 2 0 -5 -14 -8 -30 -5 -41
6 -122 -7 -115 -19 4 -5 -5 -14 -19 -21 -33 -14 -35 -48 -3 -49 12 -1 28 -1
35 0 8 1 20 -3 28 -10 11 -9 20 -8 40 6 31 20 42 15 17 -8 -11 -9 -46 -18 -88
-21 -106 -10 -161 -18 -147 -23 6 -3 12 -11 12 -19 0 -8 3 -13 7 -13 22 4 25
-3 7 -16 -14 -11 -15 -14 -4 -15 13 0 13 -1 0 -10 -9 -6 -10 -10 -3 -10 7 0
28 14 46 30 19 17 43 30 54 30 10 0 27 6 38 13 11 8 28 17 39 21 18 6 18 5 2
-16 -45 -63 -44 -79 4 -93 25 -7 25 -7 5 10 -11 9 -14 14 -8 10 7 -3 28 -2 47
4 23 6 36 6 38 -1 7 -20 112 -13 243 15 33 7 78 12 100 12 26 0 44 6 52 17 10
12 24 15 55 12 34 -3 38 -2 18 5 -22 8 -22 9 -4 10 11 1 25 -4 32 -11 9 -9 12
-9 12 0 0 6 10 12 23 11 12 0 33 1 45 3 l24 3 1 -810 c1 -750 0 -812 -16 -842
-32 -61 -54 -68 -224 -71 l-153 -4 0 -29 0 -29 542 2 541 3 2 23 c1 13 -2 25
-6 28 -4 2 -64 5 -132 5 -137 0 -174 11 -211 62 -24 33 -24 19 -29 1015 l-4
682 26 1 c14 0 58 1 96 2 39 1 75 5 80 9 6 3 160 5 343 3 269 -3 330 -1 319 9
-18 18 -124 53 -179 59 -25 3 -55 10 -65 15 -10 5 -30 8 -45 7 -16 -1 -28 3
-28 9 0 7 -3 8 -8 1 -9 -13 -64 -16 -79 -4 -7 7 -14 6 -18 -1 -3 -6 -12 -7
-18 -3 -7 5 -25 9 -42 10 -16 1 -51 4 -78 6 -26 3 -45 2 -43 -2 6 -9 -25 -8
-41 2 -6 4 -14 3 -18 -3 -10 -17 -27 -11 -23 8 3 15 18 17 123 19 227 2 295 6
300 14 5 7 -55 17 -122 22 -13 1 -23 5 -23 9 0 4 -8 8 -17 9 -12 1 -9 4 7 8
15 5 -27 10 -110 15 -214 12 -224 13 -242 21 -10 4 -15 11 -12 16 3 5 0 9 -5
9 -6 0 -11 -5 -11 -11 0 -8 -4 -8 -14 0 -10 8 -16 9 -21 1 -3 -5 -12 -10 -18
-10 -7 0 -6 4 3 10 17 11 24 10 -123 13 -54 1 -101 0 -104 -3z m207 -15 c0 -7
-30 -13 -34 -7 -3 4 4 9 15 9 10 1 19 0 19 -2z m-692 -112 c-10 -2 -26 -2 -35
0 -10 3 -2 5 17 5 19 0 27 -2 18 -5z m810 -20 c-21 -2 -57 -2 -80 0 -24 2 -7
4 37 4 44 0 63 -2 43 -4z"/>
<path d="M1560 2248 c0 -5 30 -7 68 -7 69 2 62 6 -20 11 -27 2 -48 0 -48 -4z"/>
<path d="M1518 2243 c6 -2 18 -2 25 0 6 3 1 5 -13 5 -14 0 -19 -2 -12 -5z"/>
<path d="M1713 2243 c9 -2 23 -2 30 0 6 3 -1 5 -18 5 -16 0 -22 -2 -12 -5z"/>
</g>
</svg>
